<?xml version="1.0" encoding="UTF-8"?>
<svg version="1.1" xmlns="http://www.w3.org/2000/svg" width="256" height="256">
<path d="M0 0 C5.46256275 -0.12381149 10.92430488 -0.21443826 16.38793945 -0.2746582 C18.24550609 -0.29976702 20.10297427 -0.33386134 21.96020508 -0.37719727 C24.63387358 -0.43801124 27.30623365 -0.4662452 29.98046875 -0.48828125 C31.2213752 -0.52699089 31.2213752 -0.52699089 32.48735046 -0.56648254 C36.85816591 -0.5685976 38.460716 -0.44162493 41.96513367 2.42817688 C42.63663956 3.27687851 43.30814545 4.12558014 44 5 C44.78080933 5.81053833 44.78080933 5.81053833 45.57739258 6.63745117 C46.99427002 8.14939991 48.40478482 9.66701725 49.8125 11.1875 C50.56563477 11.98704102 50.56563477 11.98704102 51.33398438 12.80273438 C55 16.76801658 55 16.76801658 55 19 C55.57878906 19.23074219 56.15757813 19.46148437 56.75390625 19.69921875 C59.5637803 21.32650233 60.98137981 23.22887195 62.9375 25.8125 C65.77588886 29.47307899 68.67930528 32.7644513 72 36 C73.17552303 37.32553177 74.34146873 38.65959178 75.5 40 C78.21534325 43.13445058 81.02485209 46.10749509 84 49 C85.00119118 49.9988074 86.00143575 50.99856631 87 52 C88.15628906 50.59234375 88.15628906 50.59234375 89.3359375 49.15625 C90.34865021 47.93724396 91.36168788 46.71850782 92.375 45.5 C93.13683594 44.56994141 93.13683594 44.56994141 93.9140625 43.62109375 C95.23207606 42.04294593 96.61212632 40.51707513 98 39 C98.66 39 99.32 39 100 39 C100.25136719 38.44183594 100.50273437 37.88367188 100.76171875 37.30859375 C104.27277247 30.76274912 109.71912185 25.15207625 115 20 C120.85285425 13.78312462 120.85285425 13.78312462 126 7 C126.66 7 127.32 7 128 7 C128.4021875 6.1028125 128.4021875 6.1028125 128.8125 5.1875 C130.03003499 2.94467239 131.03928616 1.61923289 133 0 C134.87931824 -0.36076355 134.87931824 -0.36076355 137.01245117 -0.34057617 C137.81305466 -0.34034958 138.61365814 -0.34012299 139.43852234 -0.33988953 C140.29798965 -0.32440567 141.15745697 -0.30892181 142.04296875 -0.29296875 C143.36836418 -0.28660149 143.36836418 -0.28660149 144.72053528 -0.28010559 C147.54316661 -0.26331043 150.36508441 -0.22565697 153.1875 -0.1875 C155.10090115 -0.17245423 157.01431349 -0.15876564 158.92773438 -0.14648438 C163.61876459 -0.11340419 168.30926131 -0.0616163 173 0 C173.16363563 15.02068658 173.28701639 30.04130401 173.3626852 45.06269264 C173.39875625 52.03770394 173.44791851 59.01216094 173.52807617 65.98681641 C173.60538909 72.71716307 173.64598424 79.44681484 173.6641407 86.17762375 C173.6770803 88.74613894 173.70234858 91.31462242 173.7401104 93.88289261 C173.79089048 97.47942589 173.79792481 101.07357638 173.79467773 104.67041016 C173.83242813 106.26508118 173.83242813 106.26508118 173.87094116 107.89196777 C173.80157752 114.98709524 173.80157752 114.98709524 171.47609138 117.92567062 C169.60658264 119.52059937 169.60658264 119.52059937 167.74745274 120.79283714 C165.6911101 122.09799739 165.6911101 122.09799739 163.5 125 C161.07918825 127.9049741 158.58218698 130.10439698 155.6875 132.5 C153.75444683 134.14332242 153.75444683 134.14332242 151.5 137 C149.07069543 139.91516549 146.56666853 142.208822 143.6484375 144.60546875 C141.95325685 145.99648664 141.95325685 145.99648664 140.3515625 147.67578125 C139 149 139 149 138 149 C137.67 116.33 137.34 83.66 137 50 C136.34 50 135.68 50 135 50 C134.77699219 50.54140625 134.55398437 51.0828125 134.32421875 51.640625 C132.57919025 54.74976132 130.24683477 57.17849661 127.8125 59.75 C126.81443675 60.820993 125.81704077 61.89260823 124.8203125 62.96484375 C124.33594727 63.4841748 123.85158203 64.00350586 123.35253906 64.53857422 C119.8954703 68.27395573 116.55365393 72.11907175 113.3125 76.04296875 C112.77625 76.68878906 112.24 77.33460938 111.6875 78 C110.98173828 78.86625 110.98173828 78.86625 110.26171875 79.75 C109 81 109 81 107 81 C106.7525 81.556875 106.505 82.11375 106.25 82.6875 C104.77075182 85.42410913 103.06532561 87.67650869 101 90 C100.34 90 99.68 90 99 90 C98.76152344 90.55171875 98.52304688 91.1034375 98.27734375 91.671875 C96.69547745 94.55503193 94.74843163 96.79486497 92.5625 99.25 C91.78003906 100.14203125 90.99757813 101.0340625 90.19140625 101.953125 C88 104 88 104 85 104 C83.38671875 102.49609375 83.38671875 102.49609375 81.6875 100.4375 C81.07519531 99.70789063 80.46289062 98.97828125 79.83203125 98.2265625 C79.22746094 97.49179688 78.62289062 96.75703125 78 96 C74.47868891 91.82217328 70.91555222 87.82005095 67 84 C53.66071429 70.98214286 53.66071429 70.98214286 52 66 C49.99983534 64.79117904 49.99983534 64.79117904 48 64 C48 63.34 48 62.68 48 62 C47.34 62 46.68 62 46 62 C44.4921875 60.5390625 44.4921875 60.5390625 42.875 58.625 C42.33617187 57.99851563 41.79734375 57.37203125 41.2421875 56.7265625 C40 55 40 55 40 53 C39.01 52.67 38.02 52.34 37 52 C35.62804426 50.70644173 34.28817344 49.37701298 33 48 C28.55715231 80.01126881 28.55715231 80.01126881 38.53125 108.94921875 C43.53407388 114.50200451 49.41855974 119.12171785 55.59155273 123.30322266 C58 125 58 125 59 127 C59.09003966 128.57291208 59.11756509 130.14961575 59.11352539 131.72509766 C59.11344986 132.70596344 59.11337433 133.68682922 59.11329651 134.69741821 C59.10813522 135.75891083 59.10297394 136.82040344 59.09765625 137.9140625 C59.0962413 138.99883881 59.09482635 140.08361511 59.09336853 141.20126343 C59.08775802 144.67587 59.07520372 148.15041281 59.0625 151.625 C59.05748635 153.97656157 59.05292321 156.32812415 59.04882812 158.6796875 C59.03778518 164.45314686 59.02103679 170.22656888 59 176 C57.8781721 175.05129202 56.75816119 174.10043523 55.63891602 173.14868164 C55.0150148 172.61940567 54.39111359 172.0901297 53.74830627 171.54481506 C51.61302733 169.65806838 49.77240828 167.61523616 47.9375 165.4375 C44.86485387 161.89213908 41.61356589 158.99849085 38 156 C36.9801621 154.87178695 35.98226068 153.72357622 35 152.5625 C31.53825225 148.49031012 27.79807466 144.75389946 24 141 C15.52211666 132.61148529 15.52211666 132.61148529 11.84384155 127.97909546 C10.04039041 125.88723153 10.04039041 125.88723153 7.52944946 124.37271118 C3.35465622 121.30965735 0.57003045 118.56464462 -0.56085968 113.47661591 C-1.44762489 105.56213658 -1.14490289 97.59555946 -0.9765625 89.6484375 C-0.95789471 87.06200908 -0.94366792 84.47554513 -0.9336853 81.8890686 C-0.89951457 75.79689643 -0.82086085 69.70681594 -0.72019041 63.61542857 C-0.60800176 56.67483707 -0.5533317 49.73415384 -0.50323606 42.79287982 C-0.39900716 28.52761493 -0.22337754 14.26387219 0 0 Z " fill="#FCFC00" transform="translate(39,56)"/>
</svg>
